<svg version="1.1" xmlns="http://www.w3.org/2000/svg" viewBox="0 0 916.6528682464739 104.69091369870796" width="1833.3057364929477" height="209.38182739741592" filter="invert(93%) hue-rotate(180deg)">
  <!-- svg-source:excalidraw -->
  
  <defs>
    <style class="style-fonts">
      @font-face {
        font-family: "Virgil";
        src: url("https://excalidraw.com/Virgil.woff2");
      }
      @font-face {
        font-family: "Cascadia";
        src: url("https://excalidraw.com/Cascadia.woff2");
      }
      @font-face {
        font-family: "Assistant";
        src: url("https://excalidraw.com/Assistant-Regular.woff2");
      }
    </style>
    
  </defs>
  <rect x="0" y="0" width="916.6528682464739" height="104.69091369870796" fill="#ffffff"></rect><g stroke-linecap="round"><g transform="translate(12.970518140699312 70.48978256985151) rotate(0 218.52629714030923 0.9733910785760145)"><path d="M-0.41 0.92 C72.37 1.17, 363.35 1.09, 436.31 1.18 M1.58 0.36 C74.77 0.77, 366.11 1.95, 438.64 2.32" stroke="#2f9e44" stroke-width="2" fill="none"></path></g></g><mask></mask><g stroke-linecap="round"><g transform="translate(471.4377161499895 73.40995580557956) rotate(0 217.0662105224452 0.48669553928789355)"><path d="M-0.3 0.13 C71.86 0.23, 360.55 -0.23, 433.06 -0.22 M1.74 -0.85 C74.25 -0.57, 363.12 0.37, 435.22 0.68" stroke="#2f9e44" stroke-width="2" fill="none"></path></g></g><mask></mask><g stroke-linecap="round"><g transform="translate(450.2818675595261 55.30861320090389) rotate(0 -0.16242875139181479 16.405303890571986)"><path d="M-0.35 -0.14 C-0.37 5.37, -0.32 27.37, -0.27 32.77 M0.47 -0.69 C0.39 4.93, -0.55 27.91, -0.68 33.46" stroke="#2f9e44" stroke-width="2" fill="none"></path></g></g><mask></mask><g stroke-linecap="round"><g transform="translate(471.39760524046034 54.65889819533663) rotate(0 0.16242875139175794 17.055018896139188)"><path d="M0.26 0.46 C0.37 6.09, 0.12 28.23, 0.14 33.79 M-0.27 0.22 C-0.21 5.92, -0.44 28.65, -0.38 34.33" stroke="#2f9e44" stroke-width="2" fill="none"></path></g></g><mask></mask><g stroke-linecap="round"><g transform="translate(436.31299493983107 52.70975317863497) rotate(0 6.984436309847524 0.3248575027835727)"><path d="M-0.14 -0.01 C2.2 0, 11.78 0.14, 14.22 0.21 M0.8 -0.48 C3.06 -0.43, 11.64 0.46, 13.91 0.69" stroke="#2f9e44" stroke-width="2" fill="none"></path></g></g><mask></mask><g stroke-linecap="round"><g transform="translate(435.3384224314803 87.4695059764806) rotate(0 6.8220075584556525 0)"><path d="M0.2 -0.25 C2.53 -0.24, 11.43 0.14, 13.65 0.26 M-0.36 0.8 C1.92 0.65, 10.98 -0.37, 13.22 -0.57" stroke="#2f9e44" stroke-width="2" fill="none"></path></g></g><mask></mask><g stroke-linecap="round"><g transform="translate(471.39760524046034 55.95832820647104) rotate(0 6.8220075584556525 -0.8121437569590171)"><path d="M-0.23 -0.17 C2.07 -0.32, 11.46 -0.79, 13.72 -1.1 M0.65 -0.73 C2.89 -1.01, 11.3 -1.64, 13.33 -1.8" stroke="#2f9e44" stroke-width="2" fill="none"></path></g></g><mask></mask><g stroke-linecap="round"><g transform="translate(471.72246274324385 88.76893598761501) rotate(0 6.497150055672137 -0.48728625417544436)"><path d="M0.04 0.22 C2.26 0.15, 11.12 -0.73, 13.29 -0.97 M-0.6 -0.14 C1.58 -0.08, 10.79 -0.17, 13.01 -0.27" stroke="#2f9e44" stroke-width="2" fill="none"></path></g></g><mask></mask><g stroke-linecap="round"><g transform="translate(11.98966246038816 52.84112868884358) rotate(0 -0.740910964776532 17.33731657577107)"><path d="M-0.1 -0.43 C-0.35 5.36, -1.31 29.28, -1.53 35.2 M-0.82 0.54 C-1.14 6.16, -1.83 28.89, -1.99 34.5" stroke="#2f9e44" stroke-width="2" fill="none"></path></g></g><mask></mask><g stroke-linecap="round"><g transform="translate(10.507840530835097 88.70121938402815) rotate(0 7.112745261854798 -0.14818219295528934)"><path d="M0.49 -0.13 C2.75 -0.17, 11.78 -0.45, 14.06 -0.46 M0.07 -0.67 C2.21 -0.62, 11.25 -0.04, 13.54 0.15" stroke="#2f9e44" stroke-width="2" fill="none"></path></g></g><mask></mask><g stroke-linecap="round"><g transform="translate(13.175120004030646 53.137493074754275) rotate(0 7.112745261854798 0.14818219295528934)"><path d="M-0.09 -0.29 C2.26 -0.22, 12.28 0.4, 14.61 0.5 M-0.81 0.76 C1.47 0.64, 11.74 -0.39, 14.37 -0.36" stroke="#2f9e44" stroke-width="2" fill="none"></path></g></g><mask></mask><g stroke-linecap="round"><g transform="translate(905.6088905260949 52.11955312956593) rotate(0 0.20921658830877732 20.50322565425745)"><path d="M0.38 0.05 C0.41 6.73, -0.1 33.67, -0.08 40.59 M-0.09 -0.4 C0.13 6.58, 0.85 34.22, 0.9 41.07" stroke="#2f9e44" stroke-width="2" fill="none"></path></g></g><mask></mask><g stroke-linecap="round"><g transform="translate(906.0273237027125 93.54443761469838) rotate(0 -10.670046003746279 0.4184331766174978)"><path d="M-0.1 -0.18 C-3.64 0.02, -17.57 1.01, -21.2 1.15 M-0.82 -0.74 C-4.42 -0.7, -18.22 0.02, -21.56 0.34" stroke="#2f9e44" stroke-width="2" fill="none"></path></g></g><mask></mask><g stroke-linecap="round"><g transform="translate(903.0982914663898 50.02738724647838) rotate(0 -10.251612827128724 -0.41843317661744095)"><path d="M0.42 0.07 C-2.85 -0.2, -16.61 -0.93, -20.03 -1.16 M-0.03 -0.37 C-3.29 -0.34, -16.85 -0.54, -20.22 -0.63" stroke="#2f9e44" stroke-width="2" fill="none"></path></g></g><mask></mask><g stroke-linecap="round"><g transform="translate(391.33228338074895 28.67209889387516) rotate(0 65.40613399286684 0.6715208828836126)"><path d="M-0.28 -0.61 C21.4 -0.42, 108.18 0.12, 129.96 0.34 M1.77 1.69 C23.84 2.06, 110.95 1.35, 132.23 1.36" stroke="#e03131" stroke-width="2" fill="none"></path></g></g><mask></mask><g stroke-linecap="round"><g transform="translate(525.0992432511707 12.82420605782113) rotate(0 0.5372167063069355 16.250805365784174)"><path d="M0.49 -0.49 C0.73 4.96, 0.77 26.76, 0.95 32.32 M0.08 0.45 C0.28 6, 0.22 27.66, 0.46 32.93" stroke="#e03131" stroke-width="2" fill="none"></path></g></g><mask></mask><g stroke-linecap="round"><g transform="translate(526.1736766637846 45.32581678938948) rotate(0 -6.312296299106265 -0.2686083531534109)"><path d="M0.12 0.21 C-2.01 0.17, -10.15 -0.41, -12.27 -0.55 M-0.48 -0.16 C-2.7 -0.08, -10.44 0.13, -12.52 0.14" stroke="#e03131" stroke-width="2" fill="none"></path></g></g><mask></mask><g stroke-linecap="round"><g transform="translate(524.8306348980173 12.82420605782113) rotate(0 -5.10355870991566 -0.13430417657673388)"><path d="M0.24 -0.28 C-1.51 -0.32, -8.72 -0.5, -10.41 -0.57 M-0.31 0.76 C-2.14 0.82, -9.31 0.15, -10.94 -0.02" stroke="#e03131" stroke-width="2" fill="none"></path></g></g><mask></mask><g stroke-linecap="round"><g transform="translate(390.09794645265896 11.991252966929892) rotate(0 0.10831800514381484 16.843449799860366)"><path d="M-0.41 0.22 C-0.36 5.82, -0.19 28.31, -0.02 33.89 M0.38 -0.14 C0.36 5.26, -0.59 27.28, -0.57 33.03" stroke="#e03131" stroke-width="2" fill="none"></path></g></g><mask></mask><g stroke-linecap="round"><g transform="translate(389.88131044237133 46.653014612944844) rotate(0 8.286327393500471 0.3249540154313877)"><path d="M-0.49 0.52 C2.4 0.69, 14.14 0.77, 17.03 0.87 M0.26 0.31 C3.14 0.33, 14.11 0.02, 16.83 0.01" stroke="#e03131" stroke-width="2" fill="none"></path></g></g><mask></mask><g stroke-linecap="round"><g transform="translate(391.2894445092407 10.691436905204341) rotate(0 8.015532380640934 0)"><path d="M-0.39 -0.27 C2.31 -0.17, 12.84 0.15, 15.64 0.18 M0.41 0.78 C3.33 0.75, 14.03 -0.65, 16.67 -0.69" stroke="#e03131" stroke-width="2" fill="none"></path></g></g><mask></mask></svg>