<svg version="1.1" xmlns="http://www.w3.org/2000/svg" viewBox="0 0 1017.3689984498412 287.44057403042814" width="2034.7379968996825" height="574.8811480608563" filter="invert(93%) hue-rotate(180deg)">
  <!-- svg-source:excalidraw -->
  
  <defs>
    <style class="style-fonts">
      @font-face {
        font-family: "Virgil";
        src: url("https://excalidraw.com/Virgil.woff2");
      }
      @font-face {
        font-family: "Cascadia";
        src: url("https://excalidraw.com/Cascadia.woff2");
      }
      @font-face {
        font-family: "Assistant";
        src: url("https://excalidraw.com/Assistant-Regular.woff2");
      }
    </style>
    
  </defs>
  <rect x="0" y="0" width="1017.3689984498412" height="287.44057403042814" fill="#ffffff"></rect><g stroke-linecap="round"><g transform="translate(18.05397753809782 172.32601806048115) rotate(0 93.77588520137249 0.9193714235427706)"><path d="M0.17 -0.59 C31.47 -0.14, 155.57 2.51, 186.74 2.72 M-1.21 1.72 C30.58 1.83, 157.79 1.12, 189.03 1.07" stroke="#2f9e44" stroke-width="2" fill="none"></path></g></g><mask></mask><g stroke-linecap="round"><g transform="translate(288.3491760597009 172.32601806048115) rotate(0 216.0522845325739 0.9193714235427706)"><path d="M0 0.27 C72.36 0.54, 361 0.71, 432.98 1.09 M-1.46 -0.63 C70.92 -0.17, 360.41 2.03, 432.49 2.23" stroke="#2f9e44" stroke-width="2" fill="none"></path></g></g><mask></mask><g stroke-linecap="round"><g transform="translate(14.376491843926338 106.13127556539462) rotate(0 169.16434193188766 0.9193714235428843)"><path d="M-0.09 0.16 C56.12 0.45, 281.49 2.6, 338.09 2.71 M-1.59 -0.8 C54.36 -0.93, 280.18 0.65, 337.01 1.04" stroke="#e03131" stroke-width="2" fill="none"></path></g></g><mask></mask><g stroke-linecap="round"><g transform="translate(16.215234691012107 32.58156168196524) rotate(0 227.0847416150883 0)"><path d="M-0.1 -0.84 C75.9 -0.62, 379.27 1.14, 455.09 1.17 M-1.62 1.33 C74.4 1.27, 378.63 -0.17, 454.63 -0.34" stroke="#e03131" stroke-width="2" fill="none"></path></g></g><mask></mask><g stroke-linecap="round"><g transform="translate(18.05397753809782 256.908189026425) rotate(0 197.66485606171653 -0.919371423542998)"><path d="M-0.94 0.69 C64.82 0.29, 328.74 -1.99, 394.85 -2.22 M0.77 0.01 C66.3 -0.24, 327.92 -0.48, 393.65 -0.88" stroke="#e03131" stroke-width="2" fill="none"></path></g></g><mask></mask><g stroke-linecap="round"><g transform="translate(770.0998019961636 172.32601806048115) rotate(0 117.67954221348714 -0.9193714235428843)"><path d="M-0.13 1 C38.8 0.57, 195.29 -1.95, 234.51 -2.44 M-1.66 0.48 C37.58 0.19, 197.44 -1.02, 236.78 -1.21" stroke="#2f9e44" stroke-width="2" fill="none"></path></g></g><mask></mask><g stroke-linecap="round"><g transform="translate(417.0611753557024 104.29253271830885) rotate(0 228.00411303863117 -0.9193714235428843)"><path d="M-0.43 0.64 C75.6 0.36, 379.02 -2.33, 455.15 -2.66 M1.55 -0.06 C78.04 -0.13, 381.71 -1, 457.42 -1.55" stroke="#e03131" stroke-width="2" fill="none"></path></g></g><mask></mask><g stroke-linecap="round"><g transform="translate(10.699006149754858 12.355390364022014) rotate(0 0.9193714235428843 22.06491416502888)"><path d="M0.2 -0.34 C0.41 6.9, 1.4 36.24, 1.74 43.59 M-0.36 0.68 C-0.28 7.95, 0.84 36.76, 1.26 44.01" stroke="#e03131" stroke-width="2" fill="none"></path></g></g><mask></mask><g stroke-linecap="round"><g transform="translate(12.537748996840627 56.48521869407978) rotate(0 12.871199929600152 0)"><path d="M-0.25 0.03 C4.07 0.09, 21.37 0.31, 25.67 0.28 M0.62 -0.43 C4.89 -0.53, 21.13 -0.68, 25.21 -0.55" stroke="#e03131" stroke-width="2" fill="none"></path></g></g><mask></mask><g stroke-linecap="round"><g transform="translate(10.699006149754858 10.516647516936246) rotate(0 11.032457082514412 0)"><path d="M-0.02 -0.02 C3.55 -0.15, 18.1 -0.4, 21.71 -0.38 M-0.7 -0.5 C3.03 -0.62, 18.86 -0.08, 22.77 0.12" stroke="#e03131" stroke-width="2" fill="none"></path></g></g><mask></mask><g stroke-linecap="round"><g transform="translate(444.64231806198836 12.355390364022014) rotate(0 13.790571353143037 0)"><path d="M-0.43 0.19 C4.22 0.13, 23.41 -0.31, 28.09 -0.26 M0.35 -0.18 C4.96 -0.19, 23.42 0.33, 27.92 0.3" stroke="#e03131" stroke-width="2" fill="none"></path></g></g><mask></mask><g stroke-linecap="round"><g transform="translate(472.22346076827444 12.355390364022014) rotate(0 -0.9193714235428843 24.82302843565742)"><path d="M0.34 0.04 C0.01 8.33, -1.21 41.84, -1.5 50.12 M-0.15 -0.41 C-0.56 7.7, -1.53 40.94, -1.75 49.4" stroke="#e03131" stroke-width="2" fill="none"></path></g></g><mask></mask><g stroke-linecap="round"><g transform="translate(470.38471792118867 62.001447235336855) rotate(0 -16.548685623771576 0.9193714235428843)"><path d="M-0.44 -0.15 C-5.85 0.14, -27.29 1.44, -32.7 1.76 M0.33 -0.7 C-5.09 -0.33, -27.34 1.91, -32.93 2.42" stroke="#e03131" stroke-width="2" fill="none"></path></g></g><mask></mask><g stroke-linecap="round"><g transform="translate(12.537748996840627 124.51870403625185) rotate(0 0.9193714235428558 -19.30679989440023)"><path d="M-0.36 -0.06 C-0.07 -6.44, 0.99 -32.12, 1.39 -38.48 M0.45 -0.57 C0.94 -7.1, 2.16 -32.96, 2.39 -39.38" stroke="#e03131" stroke-width="2" fill="none"></path></g></g><mask></mask><g stroke-linecap="round"><g transform="translate(14.376491843926338 85.90510424745139) rotate(0 10.113085658971556 0)"><path d="M-0.08 0.43 C3.18 0.45, 16.47 0.01, 19.92 -0.03 M-0.78 0.17 C2.63 0.29, 17.46 0.82, 21 0.66" stroke="#e03131" stroke-width="2" fill="none"></path></g></g><mask></mask><g stroke-linecap="round"><g transform="translate(14.376491843926338 120.84121834208054) rotate(0 11.951828506057296 0)"><path d="M-0.42 0.54 C3.54 0.65, 19.31 0.52, 23.36 0.38 M0.36 0.34 C4.53 0.32, 20.46 -0.35, 24.31 -0.4" stroke="#e03131" stroke-width="2" fill="none"></path></g></g><mask></mask><g stroke-linecap="round"><g transform="translate(413.38368966153087 84.06636140036585) rotate(0 0 19.30679989440023)"><path d="M0.4 -0.17 C0.4 6.32, -0.32 32.47, -0.31 38.97 M-0.06 -0.74 C0.15 5.61, 0.69 31.76, 0.77 38.19" stroke="#e03131" stroke-width="2" fill="none"></path></g></g><mask></mask><g stroke-linecap="round"><g transform="translate(413.38368966153087 122.6799611891663) rotate(0 12.871199929600152 0)"><path d="M0.04 -0.04 C4.3 0.12, 21.3 0.48, 25.62 0.47 M-0.61 -0.54 C3.57 -0.48, 20.73 -0.42, 25.13 -0.25" stroke="#e03131" stroke-width="2" fill="none"></path></g></g><mask></mask><g stroke-linecap="round"><g transform="translate(413.38368966153087 85.90510424745139) rotate(0 9.193714235428672 0)"><path d="M0.35 0.4 C3.43 0.45, 15.52 0.04, 18.49 -0.05 M-0.14 0.13 C2.88 0.3, 15.13 0.58, 18.11 0.62" stroke="#e03131" stroke-width="2" fill="none"></path></g></g><mask></mask><g stroke-linecap="round"><g transform="translate(871.230658585879 84.06636140036585) rotate(0 0 19.30679989440023)"><path d="M0.06 0.43 C0.22 6.72, 0.5 31.64, 0.46 38.09 M-0.58 0.18 C-0.4 6.48, 0.27 32.16, 0.27 38.52" stroke="#e03131" stroke-width="2" fill="none"></path></g></g><mask></mask><g stroke-linecap="round"><g transform="translate(849.1657444208503 85.90510424745139) rotate(0 11.951828506057268 0)"><path d="M-0.52 0.48 C3.36 0.45, 19.51 0.28, 23.59 0.13 M0.22 0.25 C4.24 0.02, 20.75 -0.72, 24.67 -0.76" stroke="#e03131" stroke-width="2" fill="none"></path></g></g><mask></mask><g stroke-linecap="round"><g transform="translate(871.230658585879 119.00247549499477) rotate(0 -11.032457082514384 0)"><path d="M-0.2 -0.24 C-3.88 -0.24, -18.39 0.06, -22 0.19 M0.7 0.83 C-3.05 0.65, -18.6 -0.5, -22.4 -0.68" stroke="#e03131" stroke-width="2" fill="none"></path></g></g><mask></mask><g stroke-linecap="round"><g transform="translate(14.376491843926338 236.6820177084818) rotate(0 1.83874284708574 20.226171317943)"><path d="M0.21 -0.04 C0.76 6.55, 2.64 33.38, 3.28 40.1 M-0.35 -0.54 C0.37 6.35, 3.6 33.73, 4.31 40.62" stroke="#e03131" stroke-width="2" fill="none"></path></g></g><mask></mask><g stroke-linecap="round"><g transform="translate(18.05397753809782 277.1343603443678) rotate(0 11.032457082514412 0)"><path d="M-0.49 0.28 C3.11 0.33, 18.35 0.31, 22.02 0.25 M0.27 -0.05 C3.75 -0.17, 17.85 -0.68, 21.57 -0.58" stroke="#e03131" stroke-width="2" fill="none"></path></g></g><mask></mask><g stroke-linecap="round"><g transform="translate(14.376491843926338 234.84327486139625) rotate(0 11.951828506057296 0)"><path d="M0.09 -0.52 C3.92 -0.51, 19.4 0.11, 23.42 0.14 M-0.52 0.4 C3.43 0.23, 20.31 -0.7, 24.4 -0.75" stroke="#e03131" stroke-width="2" fill="none"></path></g></g><mask></mask><g stroke-linecap="round"><g transform="translate(407.8674611202737 233.00453201431026) rotate(0 0 19.30679989440023)"><path d="M-0.19 0.34 C-0.25 6.77, 0.26 32.63, 0.21 39.05 M0.71 0.04 C0.55 6.56, -0.09 31.99, -0.11 38.31" stroke="#e03131" stroke-width="2" fill="none"></path></g></g><mask></mask><g stroke-linecap="round"><g transform="translate(407.8674611202737 271.6181318031107) rotate(0 -11.032457082514384 0.919371423542998)"><path d="M-0.18 0.33 C-3.73 0.67, -18.13 1.91, -21.7 2.15 M0.73 0.02 C-2.83 0.2, -18.21 0.96, -21.94 1.34" stroke="#e03131" stroke-width="2" fill="none"></path></g></g><mask></mask><g stroke-linecap="round"><g transform="translate(389.48003264941633 234.84327486139625) rotate(0 11.03245708251444 0)"><path d="M-0.02 -0.4 C3.7 -0.25, 18.83 0.42, 22.55 0.5 M-0.7 0.59 C2.98 0.62, 18.58 -0.23, 22.37 -0.21" stroke="#e03131" stroke-width="2" fill="none"></path></g></g><mask></mask><g stroke-linecap="round"><g transform="translate(16.215234691012107 152.09984674253792) rotate(0 0.9193714235428558 19.30679989440023)"><path d="M0.45 -0.48 C0.83 5.87, 1.68 32.03, 1.91 38.63 M0.02 0.46 C0.36 7.14, 1.28 33.03, 1.52 39.34" stroke="#2f9e44" stroke-width="2" fill="none"></path></g></g><mask></mask><g stroke-linecap="round"><g transform="translate(18.05397753809782 190.71344653133838) rotate(0 11.951828506057268 0)"><path d="M0.18 -0.04 C4.17 -0.1, 20.38 -0.57, 24.38 -0.54 M-0.4 -0.54 C3.53 -0.53, 20.14 -0.34, 24.2 -0.11" stroke="#2f9e44" stroke-width="2" fill="none"></path></g></g><mask></mask><g stroke-linecap="round"><g transform="translate(16.215234691012107 155.77733243670946) rotate(0 13.790571353143008 -0.9193714235428843)"><path d="M-0.05 -0.06 C4.42 -0.38, 22.67 -1.33, 27.34 -1.6 M-0.74 -0.56 C3.6 -1.08, 22.02 -2.37, 26.78 -2.45" stroke="#2f9e44" stroke-width="2" fill="none"></path></g></g><mask></mask><g stroke-linecap="round"><g transform="translate(200.0895193995856 152.09984674253792) rotate(0 1.8387428470857685 16.54868562377169)"><path d="M-0.03 0.25 C0.74 5.88, 3.49 27.96, 4.1 33.47 M-0.72 -0.09 C0.06 5.4, 3.22 27.28, 3.89 32.7" stroke="#2f9e44" stroke-width="2" fill="none"></path></g></g><mask></mask><g stroke-linecap="round"><g transform="translate(201.92826224667138 185.1972179900813) rotate(0 -12.871199929600152 0.9193714235427706)"><path d="M0.31 -0.49 C-4.06 -0.17, -21.83 1.15, -26.1 1.62 M-0.19 0.45 C-4.39 0.86, -20.85 2.04, -25.06 2.21" stroke="#2f9e44" stroke-width="2" fill="none"></path></g></g><mask></mask><g stroke-linecap="round"><g transform="translate(181.70209092872827 152.09984674253792) rotate(0 9.193714235428672 0)"><path d="M-0.03 0.3 C3.08 0.39, 15.47 0.2, 18.49 0.18 M-0.71 -0.02 C2.35 -0.07, 15.06 -0.84, 18.11 -0.7" stroke="#2f9e44" stroke-width="2" fill="none"></path></g></g><mask></mask><g stroke-linecap="round"><g transform="translate(288.3491760597009 150.26110389545215) rotate(0 0 21.145542741485997)"><path d="M-0.36 -0.3 C-0.4 6.7, -0.31 34.72, -0.19 41.9 M0.46 0.73 C0.32 7.81, -0.68 35.52, -0.72 42.39" stroke="#2f9e44" stroke-width="2" fill="none"></path></g></g><mask></mask><g stroke-linecap="round"><g transform="translate(288.3491760597009 192.55218937842415) rotate(0 11.951828506057268 0)"><path d="M-0.43 -0.46 C3.51 -0.48, 19.58 -0.47, 23.67 -0.38 M0.35 0.5 C4.2 0.56, 19.21 0.09, 23.11 0.13" stroke="#2f9e44" stroke-width="2" fill="none"></path></g></g><mask></mask><g stroke-linecap="round"><g transform="translate(288.3491760597009 152.09984674253792) rotate(0 9.193714235428672 0)"><path d="M-0.46 -0.18 C2.64 -0.26, 15.12 -0.46, 18.27 -0.36 M0.3 -0.75 C3.35 -0.78, 14.81 0.1, 17.78 0.15" stroke="#2f9e44" stroke-width="2" fill="none"></path></g></g><mask></mask><g stroke-linecap="round"><g transform="translate(720.4537451248488 155.77733243670946) rotate(0 0 20.22617131794317)"><path d="M0.12 0.05 C0.1 6.72, 0.22 33.9, 0.26 40.57 M-0.49 -0.4 C-0.59 6.33, -0.15 32.85, -0.04 39.67" stroke="#2f9e44" stroke-width="2" fill="none"></path></g></g><mask></mask><g stroke-linecap="round"><g transform="translate(720.4537451248488 196.2296750725958) rotate(0 -13.790571353142923 0.9193714235427706)"><path d="M-0.37 -0.34 C-5.05 -0.05, -23 1, -27.55 1.3 M0.43 0.68 C-4.35 1.05, -23.21 1.53, -27.97 1.72" stroke="#2f9e44" stroke-width="2" fill="none"></path></g></g><mask></mask><g stroke-linecap="round"><g transform="translate(700.2275738069058 157.61607528379523) rotate(0 11.032457082514384 -0.9193714235428843)"><path d="M-0.35 -0.33 C3.37 -0.53, 18.02 -1.03, 21.83 -1.35 M0.47 0.7 C4.14 0.36, 17.63 -1.64, 21.28 -2.07" stroke="#2f9e44" stroke-width="2" fill="none"></path></g></g><mask></mask><g stroke-linecap="round"><g transform="translate(768.261059149078 153.9385895896237) rotate(0 0 18.387428470857344)"><path d="M0.28 0.27 C0.18 6.35, -0.39 30.51, -0.53 36.61 M-0.25 -0.07 C-0.19 6.08, 0.31 30.97, 0.43 37.23" stroke="#2f9e44" stroke-width="2" fill="none"></path></g></g><mask></mask><g stroke-linecap="round"><g transform="translate(768.261059149078 190.71344653133838) rotate(0 9.193714235428615 0)"><path d="M0.37 0.14 C3.34 0.12, 15.38 0.29, 18.31 0.27 M-0.1 -0.26 C2.74 -0.48, 14.64 -0.7, 17.84 -0.56" stroke="#2f9e44" stroke-width="2" fill="none"></path></g></g><mask></mask><g stroke-linecap="round"><g transform="translate(770.0998019961636 159.454818130881) rotate(0 6.435599964800076 -0.9193714235428843)"><path d="M0.43 0.09 C2.48 -0.2, 10.63 -1.6, 12.72 -1.97 M-0.02 -0.34 C1.92 -0.53, 10.09 -1.12, 12.22 -1.34" stroke="#2f9e44" stroke-width="2" fill="none"></path></g></g><mask></mask><g stroke-linecap="round"><g transform="translate(1005.4588864231379 146.58361820128084) rotate(0 0 20.226171317943)"><path d="M0.17 0.45 C0.28 7.12, 0.5 33.51, 0.39 40.14 M-0.41 0.21 C-0.31 6.94, 0 33.93, 0.16 40.68" stroke="#2f9e44" stroke-width="2" fill="none"></path></g></g><mask></mask><g stroke-linecap="round"><g transform="translate(1003.6201435760521 150.26110389545215) rotate(0 -9.193714235428729 0)"><path d="M0.14 -0.5 C-2.85 -0.37, -14.8 0.13, -17.93 0.3 M-0.45 0.43 C-3.48 0.45, -15.01 -0.39, -18.12 -0.51" stroke="#2f9e44" stroke-width="2" fill="none"></path></g></g><mask></mask><g stroke-linecap="round"><g transform="translate(1007.2976292702236 188.8747036842526) rotate(0 -8.274342811885845 0)"><path d="M0.07 -0.14 C-2.66 -0.15, -14.2 -0.16, -16.91 -0.08 M-0.56 -0.69 C-3.07 -0.61, -13.24 0.56, -15.86 0.57" stroke="#2f9e44" stroke-width="2" fill="none"></path></g></g><mask></mask><g stroke-linecap="round"><g transform="translate(350.8664328606159 89.58258994162293) rotate(0 0 18.387428470857344)"><path d="M-0.53 0.07 C-0.5 6.21, 0.33 30.15, 0.5 36.33 M0.19 -0.36 C0.18 5.86, 0.29 30.69, 0.33 36.8" stroke="#e03131" stroke-width="2" fill="none"></path></g></g><mask></mask><g stroke-linecap="round"><g transform="translate(350.8664328606159 126.35744688333762) rotate(0 -6.435599964800076 0)"><path d="M0.18 0.3 C-1.96 0.3, -10.19 -0.1, -12.34 -0.15 M-0.39 -0.02 C-2.6 0.07, -10.4 0.38, -12.5 0.47" stroke="#e03131" stroke-width="2" fill="none"></path></g></g><mask></mask><g stroke-linecap="round"><g transform="translate(332.47900438975853 91.4213327887087) rotate(0 10.113085658971556 -0.9193714235428843)"><path d="M-0.32 -0.1 C3.04 -0.58, 16.66 -2.14, 20.14 -2.34 M0.51 -0.63 C3.8 -0.82, 16.35 -1.65, 19.66 -1.9" stroke="#e03131" stroke-width="2" fill="none"></path></g></g><mask></mask></svg>