<svg version="1.1" xmlns="http://www.w3.org/2000/svg" viewBox="0 0 1568.3589928934616 932.7531729147047" width="3136.7179857869232" height="1865.5063458294094" filter="invert(93%) hue-rotate(180deg)">
  <!-- svg-source:excalidraw -->
  
  <defs>
    <style class="style-fonts">
      @font-face {
        font-family: "Virgil";
        src: url("https://excalidraw.com/Virgil.woff2");
      }
      @font-face {
        font-family: "Cascadia";
        src: url("https://excalidraw.com/Cascadia.woff2");
      }
      @font-face {
        font-family: "Assistant";
        src: url("https://excalidraw.com/Assistant-Regular.woff2");
      }
    </style>
    
  </defs>
  <rect x="0" y="0" width="1568.3589928934616" height="932.7531729147047" fill="#ffffff"></rect><g stroke-linecap="round" transform="translate(615 10) rotate(0 108 73)"><path d="M77.6 2.82 C89.51 -1.02, 104.23 -1.24, 117.8 -0.13 C131.36 0.97, 146.53 5, 158.97 9.43 C171.41 13.86, 183.63 19.36, 192.46 26.44 C201.29 33.53, 208.17 43.09, 211.95 51.95 C215.73 60.81, 216.61 70.21, 215.16 79.61 C213.7 89.01, 209.79 100.11, 203.22 108.35 C196.65 116.6, 186.37 123.24, 175.74 129.07 C165.11 134.9, 152.65 140.52, 139.43 143.34 C126.22 146.15, 110.29 146.95, 96.46 145.96 C82.64 144.96, 68.46 141.73, 56.49 137.36 C44.52 132.99, 33.14 126.81, 24.65 119.72 C16.16 112.64, 9.41 103.83, 5.55 94.83 C1.69 85.84, 0.27 75.17, 1.48 65.74 C2.7 56.3, 6.59 46.47, 12.86 38.22 C19.12 29.97, 26.67 22.36, 39.06 16.21 C51.46 10.06, 77.12 3.82, 87.22 1.32 C97.31 -1.18, 99.08 0.16, 99.62 1.19 M102.71 -0.89 C115.62 -1.97, 132.06 2.18, 144.84 5.52 C157.62 8.86, 169.42 13.1, 179.39 19.13 C189.36 25.16, 198.56 33.39, 204.65 41.72 C210.74 50.04, 215.17 59.54, 215.91 69.08 C216.65 78.62, 213.9 90.29, 209.11 98.96 C204.33 107.64, 196.38 114.23, 187.21 121.14 C178.05 128.04, 166.27 136.33, 154.11 140.41 C141.94 144.5, 127.93 145.47, 114.21 145.65 C100.5 145.84, 84.82 144.79, 71.81 141.55 C58.79 138.3, 46.17 132.38, 36.13 126.18 C26.09 119.98, 17.61 112.61, 11.56 104.34 C5.51 96.07, 0.83 85.79, -0.18 76.58 C-1.18 67.38, 1 58.12, 5.55 49.11 C10.09 40.09, 17.55 29.44, 27.09 22.51 C36.64 15.59, 50.22 11.49, 62.82 7.58 C75.42 3.67, 96.06 0.17, 102.68 -0.94 C109.29 -2.05, 102.34 -0.23, 102.5 0.92" stroke="#1e1e1e" stroke-width="2" fill="none"></path></g><g stroke-linecap="round"><g transform="translate(729.054769159102 167.51122623286227) rotate(0 12.68317448810268 138.09508689151147)"><path d="M-0.93 -0.7 C3.27 45.39, 20.98 229.61, 25.32 275.78 M0.79 1.55 C4.82 47.86, 20.44 231.07, 24.35 277.1" stroke="#1e1e1e" stroke-width="2" fill="none"></path></g><g transform="translate(729.054769159102 167.51122623286227) rotate(0 12.68317448810268 138.09508689151147)"><path d="M13.83 254.42 C15.79 261.44, 19.52 268.13, 24.35 277.1 M13.83 254.42 C16.1 260.61, 20.35 268.25, 24.35 277.1" stroke="#1e1e1e" stroke-width="2" fill="none"></path></g><g transform="translate(729.054769159102 167.51122623286227) rotate(0 12.68317448810268 138.09508689151147)"><path d="M30.87 252.97 C27.55 260.31, 26 267.45, 24.35 277.1 M30.87 252.97 C27.82 259.49, 26.75 267.58, 24.35 277.1" stroke="#1e1e1e" stroke-width="2" fill="none"></path></g></g><mask></mask><g stroke-linecap="round" transform="translate(681.2857142857142 450.28571428571416) rotate(0 78.5 58.5)"><path d="M72.14 0.22 C82.88 -1.37, 95.92 0.86, 106.52 3.76 C117.12 6.65, 127.97 11.48, 135.72 17.57 C143.48 23.67, 149.72 32.24, 153.03 40.32 C156.35 48.41, 157.24 57.77, 155.64 66.09 C154.03 74.42, 149.5 83.04, 143.4 90.25 C137.31 97.46, 128.66 104.88, 119.06 109.35 C109.45 113.82, 97.24 116.33, 85.77 117.09 C74.3 117.84, 60.96 117.04, 50.24 113.89 C39.51 110.75, 29.24 104.31, 21.41 98.21 C13.57 92.11, 6.54 85.06, 3.23 77.28 C-0.09 69.51, -0.17 59.98, 1.53 51.55 C3.22 43.11, 7.13 34.01, 13.4 26.67 C19.67 19.33, 28.75 11.97, 39.14 7.49 C49.54 3, 68.88 0.85, 75.77 -0.24 C82.65 -1.32, 80.3 0.07, 80.44 0.98 M91.06 0.45 C101.86 1.22, 113.14 6.38, 122.44 11.39 C131.75 16.4, 141.3 23.46, 146.91 30.49 C152.52 37.52, 155.55 45.39, 156.08 53.59 C156.61 61.79, 154.36 71.45, 150.09 79.71 C145.82 87.96, 138.6 97.33, 130.44 103.11 C122.29 108.9, 111.83 112.19, 101.17 114.42 C90.5 116.66, 77.67 117.74, 66.44 116.54 C55.22 115.35, 43.02 111.95, 33.84 107.25 C24.65 102.56, 16.72 95.84, 11.32 88.38 C5.91 80.92, 2.52 71.36, 1.41 62.52 C0.3 53.68, 0.46 43.3, 4.67 35.35 C8.88 27.39, 18.17 20.5, 26.68 14.78 C35.18 9.05, 44.84 3.34, 55.7 1.01 C66.56 -1.32, 86.12 0.88, 91.82 0.8 C97.52 0.72, 90.3 -0.45, 89.91 0.53" stroke="#1e1e1e" stroke-width="2" fill="none"></path></g><g stroke-linecap="round"><g transform="translate(782.1952649578487 580.9500947784975) rotate(0 34.74185061017374 81.32832795092247)"><path d="M-0.29 0 C11.46 27.14, 58.57 135.53, 70.28 162.64 M1.76 -1.05 C13.44 26.32, 58.46 136.66, 69.75 164.17" stroke="#1e1e1e" stroke-width="2" fill="none"></path></g><g transform="translate(782.1952649578487 580.9500947784975) rotate(0 34.74185061017374 81.32832795092247)"><path d="M52.94 145.67 C57.69 152.31, 62.47 157.11, 69.75 164.17 M52.94 145.67 C57.98 151.24, 62.54 156.68, 69.75 164.17" stroke="#1e1e1e" stroke-width="2" fill="none"></path></g><g transform="translate(782.1952649578487 580.9500947784975) rotate(0 34.74185061017374 81.32832795092247)"><path d="M68.76 139.19 C69 147.64, 69.26 154.29, 69.75 164.17 M68.76 139.19 C69.06 146.64, 68.83 154.03, 69.75 164.17" stroke="#1e1e1e" stroke-width="2" fill="none"></path></g></g><mask></mask><g stroke-linecap="round" transform="translate(802.4285714285713 750.7142857142856) rotate(0 79 66.5)"><path d="M55.91 2.71 C65.85 -0.76, 79.68 0.18, 91.12 1.6 C102.56 3.03, 115.11 5.94, 124.57 11.27 C134.03 16.6, 142.49 25.03, 147.89 33.57 C153.29 42.11, 156.13 52.76, 156.95 62.51 C157.77 72.26, 156.94 83.11, 152.82 92.04 C148.69 100.98, 140.78 109.67, 132.19 116.12 C123.61 122.58, 112.15 128.13, 101.3 130.78 C90.45 133.43, 78.28 133.6, 67.1 132.02 C55.91 130.44, 43.79 126.88, 34.18 121.31 C24.58 115.74, 15 107.02, 9.46 98.61 C3.92 90.2, 1.36 80.29, 0.92 70.86 C0.47 61.44, 2.74 51.02, 6.79 42.06 C10.83 33.09, 14.86 23.87, 25.19 17.07 C35.53 10.28, 59.37 3.82, 68.78 1.3 C78.2 -1.23, 81.34 0.92, 81.71 1.92 M84.56 -0.45 C95.09 -0.85, 107.65 4.42, 117.77 9.54 C127.9 14.66, 138.76 22.47, 145.28 30.26 C151.8 38.06, 155.16 46.98, 156.9 56.31 C158.64 65.63, 159.2 76.99, 155.74 86.23 C152.28 95.47, 143.94 104.78, 136.13 111.73 C128.33 118.68, 119.58 124.64, 108.91 127.91 C98.25 131.18, 83.9 132.02, 72.14 131.35 C60.38 130.67, 48.1 128.46, 38.35 123.88 C28.61 119.29, 19.92 112.01, 13.65 103.84 C7.37 95.66, 2.61 84.13, 0.72 74.81 C-1.18 65.49, -1.26 57.08, 2.28 47.94 C5.83 38.79, 13.88 27.09, 21.98 19.94 C30.08 12.79, 40.45 8.18, 50.89 5.03 C61.33 1.87, 78.75 1.47, 84.62 1.01 C90.5 0.56, 86.06 1.52, 86.15 2.3" stroke="#1e1e1e" stroke-width="2" fill="none"></path></g><g stroke-linecap="round"><g transform="translate(706.9487434269713 577.1295309708626) rotate(0 -47.46221911306378 90.23297437011075)"><path d="M-0.05 0.38 C-15.96 30.62, -78.95 151.43, -94.73 181.58 M-1.53 -0.47 C-17.65 29.46, -79.94 150.08, -95.58 180.05" stroke="#1e1e1e" stroke-width="2" fill="none"></path></g><g transform="translate(706.9487434269713 577.1295309708626) rotate(0 -47.46221911306378 90.23297437011075)"><path d="M-92.34 155.26 C-92.85 164.49, -92.79 173.44, -95.58 180.05 M-92.34 155.26 C-92.96 163.73, -94.25 174.41, -95.58 180.05" stroke="#1e1e1e" stroke-width="2" fill="none"></path></g><g transform="translate(706.9487434269713 577.1295309708626) rotate(0 -47.46221911306378 90.23297437011075)"><path d="M-77.16 163.13 C-83.14 169.53, -88.53 175.64, -95.58 180.05 M-77.16 163.13 C-83.39 168.78, -90.23 176.59, -95.58 180.05" stroke="#1e1e1e" stroke-width="2" fill="none"></path></g></g><mask></mask><g stroke-linecap="round" transform="translate(519.5714285714286 770.4285714285713) rotate(0 85 55.5)"><path d="M87.79 0.9 C99.51 0.43, 112.67 3.11, 123.58 6.71 C134.49 10.31, 145.67 16.26, 153.24 22.51 C160.8 28.76, 166.64 36.35, 168.96 44.2 C171.28 52.05, 170.32 61.73, 167.16 69.61 C164 77.49, 157.8 85.34, 149.98 91.49 C142.15 97.63, 131.61 103.38, 120.19 106.49 C108.78 109.59, 93.82 110.3, 81.48 110.12 C69.14 109.93, 56.96 108.89, 46.14 105.37 C35.33 101.84, 24.14 95.66, 16.6 88.97 C9.06 82.27, 3.24 73.14, 0.89 65.2 C-1.47 57.27, -0.81 49.07, 2.47 41.35 C5.74 33.62, 12.45 25, 20.56 18.84 C28.67 12.68, 39.42 7.65, 51.14 4.37 C62.86 1.1, 84.16 -0.29, 90.89 -0.82 C97.63 -1.34, 91.63 0.1, 91.55 1.21 M99.1 0.15 C111.03 0.3, 125.42 5.01, 135.18 9.89 C144.94 14.77, 152.01 22.54, 157.68 29.43 C163.36 36.31, 168.19 43.16, 169.23 51.17 C170.26 59.18, 168.31 70.01, 163.89 77.48 C159.48 84.96, 152.11 90.75, 142.73 96 C133.36 101.26, 119.34 106.41, 107.65 109.02 C95.96 111.64, 84.64 113.21, 72.61 111.69 C60.58 110.16, 45.98 104.55, 35.47 99.88 C24.96 95.21, 15.24 90.58, 9.58 83.66 C3.91 76.75, 1.91 66.44, 1.49 58.37 C1.07 50.29, 2.45 42.47, 7.07 35.23 C11.68 27.98, 20.35 20.29, 29.16 14.89 C37.97 9.5, 48.15 5.17, 59.92 2.87 C71.7 0.58, 93.19 1.47, 99.79 1.14 C106.38 0.8, 99.87 0.1, 99.49 0.85" stroke="#1e1e1e" stroke-width="2" fill="none"></path></g><g stroke-linecap="round"><g transform="translate(629.9629137745993 139.9499906150151) rotate(0 -146.9020353677439 144.48747431878422)"><path d="M0.71 -0.2 C-48.2 47.78, -243.79 240.33, -292.93 288.69 M-0.38 -1.35 C-49.41 46.73, -244.3 241.83, -293.41 290.08" stroke="#1e1e1e" stroke-width="2" fill="none"></path></g><g transform="translate(629.9629137745993 139.9499906150151) rotate(0 -146.9020353677439 144.48747431878422)"><path d="M-282.77 267.46 C-286.58 276.73, -290.37 282.46, -293.41 290.08 M-282.77 267.46 C-286.51 276, -290.36 284.04, -293.41 290.08" stroke="#1e1e1e" stroke-width="2" fill="none"></path></g><g transform="translate(629.9629137745993 139.9499906150151) rotate(0 -146.9020353677439 144.48747431878422)"><path d="M-270.72 279.59 C-278.74 284.78, -286.65 286.36, -293.41 290.08 M-270.72 279.59 C-279.05 283.58, -287.51 286.97, -293.41 290.08" stroke="#1e1e1e" stroke-width="2" fill="none"></path></g></g><mask></mask><g stroke-linecap="round" transform="translate(202.57142857142858 441.4285714285714) rotate(0 89.5 64)"><path d="M72.55 0.73 C83.63 -1.79, 99.57 -0.6, 111.42 1.65 C123.28 3.9, 134.28 8.92, 143.7 14.25 C153.12 19.58, 162.03 26.13, 167.96 33.64 C173.88 41.15, 178.26 50.8, 179.22 59.3 C180.19 67.81, 178.06 76.42, 173.75 84.67 C169.45 92.91, 161.77 102.22, 153.41 108.79 C145.04 115.36, 134.7 120.9, 123.56 124.1 C112.43 127.3, 98.68 128.3, 86.59 127.99 C74.5 127.68, 62.04 125.89, 51.02 122.22 C40 118.56, 28.53 112.59, 20.48 106.01 C12.43 99.43, 6 91, 2.7 82.75 C-0.59 74.5, -0.9 65.26, 0.69 56.5 C2.28 47.75, 6.04 37.65, 12.25 30.21 C18.47 22.77, 27.31 16.83, 37.98 11.84 C48.65 6.86, 69.35 2.06, 76.26 0.29 C83.16 -1.48, 79.32 0.18, 79.4 1.23 M86.37 0.97 C98.04 -0.51, 112.34 1.68, 123.26 4.67 C134.18 7.65, 143.7 12.68, 151.89 18.86 C160.08 25.03, 168.15 33.66, 172.39 41.71 C176.64 49.77, 177.94 58.35, 177.36 67.17 C176.77 76, 174.26 86.69, 168.89 94.67 C163.52 102.65, 154.88 109.76, 145.14 115.04 C135.4 120.33, 121.96 124.6, 110.44 126.39 C98.92 128.17, 87.86 127.05, 76.01 125.76 C64.15 124.46, 49.58 123.25, 39.32 118.62 C29.06 113.99, 20.6 105.38, 14.44 97.98 C8.29 90.57, 4.18 82.6, 2.4 74.18 C0.62 65.76, 0.89 56.11, 3.78 47.46 C6.67 38.8, 11.96 29.07, 19.76 22.24 C27.56 15.41, 39.63 10.34, 50.59 6.48 C61.54 2.61, 79.53 -0.08, 85.49 -0.96 C91.45 -1.84, 86.44 -0.19, 86.34 1.19" stroke="#1e1e1e" stroke-width="2" fill="none"></path></g><g stroke-linecap="round"><g transform="translate(217.821085631292 570.1300533741758) rotate(0 -58.20269925225348 88.50062449984273)"><path d="M-1.18 -0.51 C-20.44 29.06, -96.07 147.25, -115.36 176.86 M0.4 -1.83 C-18.95 27.98, -96.03 148.26, -115.76 178.33" stroke="#1e1e1e" stroke-width="2" fill="none"></path></g><g transform="translate(217.821085631292 570.1300533741758) rotate(0 -58.20269925225348 88.50062449984273)"><path d="M-110.17 153.96 C-112.91 163.4, -114.06 168.53, -115.76 178.33 M-110.17 153.96 C-111.73 162.07, -113.38 168.57, -115.76 178.33" stroke="#1e1e1e" stroke-width="2" fill="none"></path></g><g transform="translate(217.821085631292 570.1300533741758) rotate(0 -58.20269925225348 88.50062449984273)"><path d="M-95.81 163.26 C-103.08 169.6, -108.79 171.77, -115.76 178.33 M-95.81 163.26 C-101.84 168.48, -108 172.05, -115.76 178.33" stroke="#1e1e1e" stroke-width="2" fill="none"></path></g></g><mask></mask><g stroke-linecap="round"><g transform="translate(335.07369397285777 579.2234143595444) rotate(0 12.82608147173056 79.05339041497695)"><path d="M-0.6 -0.6 C3.42 25.71, 20.81 130.91, 25.15 157.23 M1.29 1.7 C5.01 28.19, 20.05 132.21, 23.94 158.3" stroke="#1e1e1e" stroke-width="2" fill="none"></path></g><g transform="translate(335.07369397285777 579.2234143595444) rotate(0 12.82608147173056 79.05339041497695)"><path d="M12.07 136.29 C15.56 144.04, 19.69 153.09, 23.94 158.3 M12.07 136.29 C15.48 141.65, 17.58 147.23, 23.94 158.3" stroke="#1e1e1e" stroke-width="2" fill="none"></path></g><g transform="translate(335.07369397285777 579.2234143595444) rotate(0 12.82608147173056 79.05339041497695)"><path d="M29 133.82 C25.91 142.44, 23.48 152.45, 23.94 158.3 M29 133.82 C28.42 139.9, 26.55 146.06, 23.94 158.3" stroke="#1e1e1e" stroke-width="2" fill="none"></path></g></g><mask></mask><g stroke-linecap="round" transform="translate(10 749.5714285714284) rotate(0 71 56.5)"><path d="M40.5 4.77 C49.38 0.4, 62.39 -0.96, 73.38 -0.44 C84.37 0.07, 96.72 3.62, 106.44 7.88 C116.17 12.14, 125.87 17.73, 131.74 25.13 C137.62 32.52, 140.91 43.49, 141.71 52.27 C142.51 61.04, 140.69 69.84, 136.55 77.77 C132.4 85.71, 125.37 94.35, 116.85 99.88 C108.32 105.41, 96.17 109.01, 85.39 110.95 C74.61 112.89, 62.6 113.71, 52.15 111.54 C41.71 109.37, 30.65 104.02, 22.73 97.95 C14.82 91.88, 8.47 83.63, 4.66 75.11 C0.85 66.6, -1.65 55.44, -0.1 46.84 C1.44 38.25, 6.62 30.64, 13.93 23.56 C21.24 16.49, 37.8 7.66, 43.77 4.39 C49.75 1.12, 49.18 2.99, 49.78 3.94 M68.72 0.13 C79.08 -1.37, 91.97 0.57, 101.85 4.09 C111.74 7.61, 121.66 14.18, 128.03 21.26 C134.41 28.33, 138.11 37.98, 140.09 46.52 C142.08 55.07, 143.34 64.1, 139.95 72.51 C136.57 80.92, 128.06 90.84, 119.76 96.96 C111.46 103.07, 100.66 106.61, 90.16 109.22 C79.67 111.83, 67.46 113.95, 56.77 112.61 C46.09 111.26, 34.69 106.95, 26.05 101.15 C17.41 95.34, 9.16 85.67, 4.91 77.79 C0.66 69.91, -0.59 62.32, 0.53 53.88 C1.65 45.43, 5.79 34.89, 11.65 27.14 C17.51 19.39, 26.35 11.86, 35.69 7.36 C45.04 2.87, 62.53 1.05, 67.72 0.16 C72.9 -0.74, 66.57 0.92, 66.8 2.01" stroke="#1e1e1e" stroke-width="2" fill="none"></path></g><g stroke-linecap="round" transform="translate(291.1428571428572 753.1428571428571) rotate(0 78 64.5)"><path d="M59.6 1.29 C69.67 -1.49, 82.89 0.18, 93.91 2.43 C104.93 4.68, 116.67 9.09, 125.74 14.78 C134.8 20.47, 143.25 28.45, 148.28 36.58 C153.31 44.72, 155.97 54.36, 155.93 63.6 C155.88 72.84, 152.99 83.68, 148.02 92.03 C143.06 100.38, 134.69 107.84, 126.14 113.7 C117.58 119.56, 107.54 125.01, 96.7 127.19 C85.86 129.38, 72.32 128.82, 61.09 126.8 C49.87 124.79, 38.25 120.74, 29.38 115.11 C20.5 109.48, 12.62 101.31, 7.85 93.03 C3.08 84.74, 0.66 74.87, 0.75 65.4 C0.84 55.93, 3.56 44.85, 8.38 36.18 C13.2 27.51, 19.94 19.26, 29.68 13.4 C39.43 7.53, 59.39 2.99, 66.86 0.99 C74.33 -1.01, 74.17 0.56, 74.5 1.41 M96.9 0.76 C107.3 2.42, 120.02 10.12, 128.78 16.34 C137.54 22.56, 144.8 29.54, 149.44 38.07 C154.09 46.6, 157.23 58.05, 156.62 67.54 C156.02 77.02, 150.98 86.77, 145.8 94.97 C140.61 103.17, 134.29 111.09, 125.52 116.73 C116.76 122.37, 104.41 127.25, 93.2 128.83 C81.98 130.4, 69.45 128.73, 58.24 126.17 C47.03 123.6, 34.78 119.22, 25.94 113.41 C17.1 107.61, 9.29 100.12, 5.21 91.34 C1.13 82.57, 0.68 70.15, 1.46 60.74 C2.24 51.33, 5.07 42.86, 9.88 34.88 C14.68 26.89, 21.17 18.51, 30.28 12.83 C39.4 7.14, 53 2.32, 64.57 0.78 C76.13 -0.76, 93.96 2.96, 99.68 3.59 C105.41 4.22, 99.45 3.58, 98.9 4.56" stroke="#1e1e1e" stroke-width="2" fill="none"></path></g><g stroke-linecap="round"><g transform="translate(817.617077332784 153.50537327264158) rotate(0 170.87453446540263 154.0765016949119)"><path d="M-1.1 -0.34 C55.88 51.25, 285.45 257.42, 342.5 308.92 M0.52 -1.56 C57.35 49.74, 285.35 255.84, 341.94 307.2" stroke="#1e1e1e" stroke-width="2" fill="none"></path></g><g transform="translate(817.617077332784 153.50537327264158) rotate(0 170.87453446540263 154.0765016949119)"><path d="M318.79 297.77 C326.36 302.56, 336.38 303.69, 341.94 307.2 M318.79 297.77 C327.26 300.23, 334.71 305.08, 341.94 307.2" stroke="#1e1e1e" stroke-width="2" fill="none"></path></g><g transform="translate(817.617077332784 153.50537327264158) rotate(0 170.87453446540263 154.0765016949119)"><path d="M330.27 285.09 C333.73 294.26, 339.69 299.86, 341.94 307.2 M330.27 285.09 C334.7 291.88, 338.24 301.06, 341.94 307.2" stroke="#1e1e1e" stroke-width="2" fill="none"></path></g></g><mask></mask><g stroke-linecap="round" transform="translate(1111.7142857142856 478.2857142857143) rotate(0 93 64)"><path d="M58.88 4.73 C69.34 0.71, 84.38 -0.36, 96.94 -0.14 C109.5 0.09, 122.93 2.05, 134.23 6.08 C145.52 10.12, 156.75 17.04, 164.72 24.07 C172.68 31.09, 178.61 40.03, 182.01 48.23 C185.41 56.43, 187.13 64.81, 185.14 73.27 C183.15 81.73, 176.82 91.68, 170.06 98.97 C163.31 106.26, 155.11 112.2, 144.62 117.01 C134.12 121.82, 119.81 126.47, 107.09 127.83 C94.37 129.2, 80.23 127.4, 68.29 125.2 C56.36 122.99, 45.18 119.92, 35.47 114.58 C25.76 109.25, 16.03 101.01, 10.04 93.18 C4.05 85.36, 0.24 76.25, -0.48 67.62 C-1.21 58.99, 1.07 49.63, 5.72 41.38 C10.37 33.13, 17.16 24.49, 27.41 18.11 C37.67 11.73, 59.12 5.79, 67.25 3.1 C75.39 0.4, 75.67 1.07, 76.23 1.95 M115.71 2.74 C127.81 3.8, 139.61 9.29, 149.72 14.53 C159.83 19.77, 170.47 26.54, 176.37 34.19 C182.26 41.84, 184.36 51.68, 185.08 60.44 C185.8 69.19, 184.9 78.56, 180.69 86.72 C176.48 94.87, 168.46 103.19, 159.82 109.39 C151.18 115.59, 140.25 120.99, 128.84 123.92 C117.42 126.86, 103.93 127.42, 91.33 126.98 C78.73 126.53, 64.82 124.9, 53.23 121.24 C41.65 117.58, 29.92 111.48, 21.82 105 C13.72 98.52, 8.32 90.66, 4.63 82.34 C0.94 74.02, -1.72 63.89, -0.32 55.07 C1.07 46.24, 6.17 36.81, 12.99 29.41 C19.82 22.01, 30.27 15.43, 40.63 10.66 C50.99 5.88, 62.66 2.17, 75.14 0.76 C87.62 -0.64, 108.86 1.89, 115.5 2.24 C122.14 2.59, 115.61 1.71, 114.98 2.87" stroke="#1e1e1e" stroke-width="2" fill="none"></path></g><g stroke-linecap="round"><g transform="translate(1162.892857142857 617.1071428571429) rotate(0 -14.285714285714448 70.00000000000011)"><path d="M0.49 0.69 C-4.3 24.13, -23.6 116.56, -28.58 139.67 M-0.71 0.01 C-5.68 23.71, -25.16 117.65, -29.54 141.03" stroke="#1e1e1e" stroke-width="2" fill="none"></path></g><g transform="translate(1162.892857142857 617.1071428571429) rotate(0 -14.285714285714448 70.00000000000011)"><path d="M-33.34 116.32 C-31.19 124.04, -31.71 130.37, -29.54 141.03 M-33.34 116.32 C-31.57 123.35, -30.86 128.79, -29.54 141.03" stroke="#1e1e1e" stroke-width="2" fill="none"></path></g><g transform="translate(1162.892857142857 617.1071428571429) rotate(0 -14.285714285714448 70.00000000000011)"><path d="M-16.57 119.66 C-19.66 126.4, -25.44 131.68, -29.54 141.03 M-16.57 119.66 C-18.88 125.77, -22.25 130.4, -29.54 141.03" stroke="#1e1e1e" stroke-width="2" fill="none"></path></g></g><mask></mask><g stroke-linecap="round" transform="translate(1064.3214285714287 769.9642857142856) rotate(0 87.14285714285711 64.28571428571433)"><path d="M76.8 0.98 C88.68 -0.87, 104.91 0.94, 116.76 3.76 C128.61 6.57, 139.04 11.43, 147.9 17.88 C156.75 24.33, 165.67 33.4, 169.89 42.46 C174.11 51.53, 174.73 62.89, 173.22 72.26 C171.71 81.64, 167.48 90.91, 160.83 98.71 C154.19 106.5, 143.91 114.25, 133.33 119.06 C122.75 123.87, 109.99 126.69, 97.34 127.56 C84.69 128.43, 69.39 127.28, 57.42 124.26 C45.45 121.25, 34.36 115.91, 25.53 109.48 C16.71 103.06, 8.81 94.44, 4.48 85.71 C0.16 76.99, -1.8 66.3, -0.43 57.12 C0.94 47.94, 5.77 38.66, 12.71 30.62 C19.64 22.58, 28.01 13.81, 41.19 8.86 C54.37 3.9, 81.03 1.99, 91.79 0.89 C102.56 -0.22, 105.85 1.21, 105.78 2.2 M116.76 4.35 C128.69 6.65, 142 14.2, 150.83 20.65 C159.67 27.1, 165.76 34.6, 169.77 43.04 C173.78 51.47, 176.59 62.01, 174.9 71.27 C173.2 80.52, 166.48 90.42, 159.61 98.56 C152.73 106.7, 144.3 114.94, 133.63 120.09 C122.96 125.25, 108.53 128.84, 95.59 129.48 C82.65 130.12, 67.95 127.34, 56 123.94 C44.05 120.54, 32.32 115.55, 23.9 109.09 C15.47 102.62, 9.47 93.86, 5.45 85.14 C1.43 76.42, -1.52 65.88, -0.22 56.77 C1.08 47.66, 6.31 38.45, 13.25 30.5 C20.18 22.54, 30.51 14.01, 41.41 9.02 C52.31 4.02, 66.17 1.3, 78.67 0.53 C91.16 -0.24, 109.93 3.36, 116.41 4.39 C122.88 5.42, 117.62 5.6, 117.52 6.69" stroke="#1e1e1e" stroke-width="2" fill="none"></path></g><g stroke-linecap="round"><g transform="translate(1296.2320617175253 593.3779906892739) rotate(0 52.25990468392433 86.3082938593173)"><path d="M-0.75 -0.86 C16.85 27.94, 87.25 144.3, 104.89 173.19 M1.06 1.3 C18.6 29.72, 86.87 142.63, 104.14 171.36" stroke="#1e1e1e" stroke-width="2" fill="none"></path></g><g transform="translate(1296.2320617175253 593.3779906892739) rotate(0 52.25990468392433 86.3082938593173)"><path d="M84.69 155.67 C87.99 160.2, 95.07 164.37, 104.14 171.36 M84.69 155.67 C91.14 161.08, 96.59 165.64, 104.14 171.36" stroke="#1e1e1e" stroke-width="2" fill="none"></path></g><g transform="translate(1296.2320617175253 593.3779906892739) rotate(0 52.25990468392433 86.3082938593173)"><path d="M99.33 146.83 C99.12 153.4, 102.67 159.7, 104.14 171.36 M99.33 146.83 C101.62 154.78, 102.85 161.88, 104.14 171.36" stroke="#1e1e1e" stroke-width="2" fill="none"></path></g></g><mask></mask><g stroke-linecap="round" transform="translate(1340.0357142857144 775.6785714285713) rotate(0 88.57142857142867 67.14285714285722)"><path d="M117.25 3.7 C128.47 5.5, 141.46 11.72, 150.16 18.12 C158.87 24.52, 165.11 33.57, 169.48 42.1 C173.85 50.64, 176.41 60.24, 176.38 69.32 C176.36 78.41, 174.35 88.55, 169.33 96.6 C164.32 104.65, 155.42 111.93, 146.29 117.62 C137.17 123.32, 125.92 127.93, 114.57 130.75 C103.21 133.57, 90.11 135.47, 78.18 134.54 C66.25 133.62, 53.41 130.04, 42.99 125.18 C32.57 120.32, 22.71 113.06, 15.64 105.4 C8.57 97.73, 2.97 88.06, 0.59 79.2 C-1.79 70.33, -1.57 61.09, 1.36 52.19 C4.3 43.29, 10.74 32.94, 18.21 25.78 C25.67 18.62, 35.59 13.55, 46.15 9.25 C56.71 4.94, 69.12 0.69, 81.57 -0.05 C94.01 -0.8, 113.8 3.68, 120.83 4.77 C127.86 5.86, 124.19 5.57, 123.76 6.5 M59.14 4.11 C69.14 0.09, 82.66 -0.88, 94.56 -0.2 C106.47 0.48, 119.93 3.77, 130.56 8.19 C141.18 12.6, 150.77 18.91, 158.33 26.28 C165.89 33.65, 173.07 43.82, 175.93 52.43 C178.78 61.04, 177.62 69.02, 175.47 77.93 C173.33 86.84, 169.61 98.03, 163.06 105.89 C156.51 113.76, 146.74 120.28, 136.19 125.15 C125.63 130.02, 111.84 134.06, 99.75 135.12 C87.65 136.18, 75.07 134.25, 63.63 131.5 C52.2 128.75, 40.37 124.29, 31.12 118.63 C21.88 112.97, 13.22 105.87, 8.17 97.53 C3.13 89.18, 1.03 77.66, 0.86 68.57 C0.68 59.47, 2.77 51.38, 7.1 42.94 C11.43 34.5, 18.42 24.56, 26.84 17.93 C35.25 11.31, 51.96 5.48, 57.58 3.18 C63.21 0.88, 59.89 2.85, 60.59 4.12" stroke="#1e1e1e" stroke-width="2" fill="none"></path></g><g stroke-linecap="round"><g transform="translate(605.75 77.10714285714289) rotate(0 -154.28571428571428 162.85714285714286)"><path d="M1.53 1.63 C-33.89 20.8, -158.34 62.29, -210.49 116.52 C-262.64 170.75, -294.91 292, -311.36 327.02" stroke="#1971c2" stroke-width="2.5" fill="none" stroke-dasharray="8 10"></path></g><g transform="translate(605.75 77.10714285714289) rotate(0 -154.28571428571428 162.85714285714286)"><path d="M-309.87 302.7 C-310.45 309.37, -310.21 320.25, -310.66 327.51" stroke="#1971c2" stroke-width="2.5" fill="none"></path></g><g transform="translate(605.75 77.10714285714289) rotate(0 -154.28571428571428 162.85714285714286)"><path d="M-293.88 308.75 C-300.46 313.25, -306.19 321.87, -310.66 327.51" stroke="#1971c2" stroke-width="2.5" fill="none"></path></g></g><mask></mask><g stroke-linecap="round"><g transform="translate(225.75000000000009 411.3928571428568) rotate(0 77.14285714285711 80.71428571428572)"><path d="M-1.61 -0.47 C24.44 26.21, 128.42 133.59, 154.3 160.69 M2.71 -3.19 C28.56 23.85, 127.27 135.78, 152.08 163.92" stroke="#e03131" stroke-width="2" fill="none"></path></g></g><mask></mask><g stroke-linecap="round"><g transform="translate(211.46428571428575 569.9642857142853) rotate(0 92.14285714285714 -70.71428571428572)"><path d="M-2.2 0.51 C28.84 -22.45, 153.1 -116.86, 184.47 -140.37 M1.8 -1.68 C32.65 -25.26, 151.78 -120.81, 182.33 -144.8" stroke="#e03131" stroke-width="2" fill="none"></path></g></g><mask></mask><g stroke-linecap="round"><g transform="translate(510.03571428571433 705.6785714285711) rotate(0 87.85714285714283 107.85714285714289)"><path d="M-1.43 1.81 C27.9 37.81, 146.62 178.68, 176.32 214.24 M3 0.32 C31.97 36.84, 145.65 180.79, 174.4 217.07" stroke="#e03131" stroke-width="2" fill="none"></path></g></g><mask></mask><g stroke-linecap="round"><g transform="translate(702.8928571428571 722.8214285714282) rotate(0 -83.57142857142856 98.57142857142856)"><path d="M1.71 0.83 C-26.16 33.42, -141.33 165.54, -169.12 198.2 M-0.8 -1.19 C-27.61 31.75, -136.3 160.29, -163.79 193.77" stroke="#e03131" stroke-width="2" fill="none"></path></g></g><mask></mask><g stroke-linecap="round"><g transform="translate(811.4642857142857 718.535714285714) rotate(0 77.14285714285717 94.28571428571422)"><path d="M1.08 -1.5 C26.04 29.4, 126.41 156.21, 152.11 187.54 M-1.78 3.86 C23.85 34.95, 131.36 159.84, 157.34 190.61" stroke="#e03131" stroke-width="2" fill="none"></path></g></g><mask></mask><g stroke-linecap="round"><g transform="translate(945.75 701.3928571428569) rotate(0 -52.14285714285717 108.57142857142856)"><path d="M0.66 1.69 C-17.49 37.89, -89.19 179.85, -106.57 215.54 M-2.43 0.14 C-19.93 36.83, -84.3 181.95, -101.4 218.3" stroke="#e03131" stroke-width="2" fill="none"></path></g></g><mask></mask><g stroke-linecap="round"><g transform="translate(1072.892857142857 727.1071428571427) rotate(0 81.42857142857144 87.85714285714278)"><path d="M1.2 -2.51 C28.38 26.11, 136.56 144.09, 163.68 173.39 M-1.6 2.3 C25.23 31.05, 134.52 146.96, 161.89 175.75" stroke="#e03131" stroke-width="2" fill="none"></path></g></g><mask></mask><g stroke-linecap="round"><g transform="translate(1198.607142857143 722.8214285714282) rotate(0 -50.71428571428578 94.28571428571433)"><path d="M-0.04 0 C-17.36 30.98, -86.2 155.32, -102.93 186.51 M-3.51 -2.46 C-19.98 28.74, -80.98 157.03, -97.35 189.02" stroke="#e03131" stroke-width="2" fill="none"></path></g></g><mask></mask><g stroke-linecap="round"><g transform="translate(1354.3214285714284 801.3928571428569) rotate(0 39.285714285714334 39.28571428571422)"><path d="M-0.08 -1.1 C12.35 12.44, 63.55 66.18, 76.43 79.24 M-3.56 -4.17 C9.56 8.66, 68.63 60.62, 81.66 74.6" stroke="#2f9e44" stroke-width="2" fill="none"></path></g></g><mask></mask><g stroke-linecap="round"><g transform="translate(1432.892857142857 879.9642857142853) rotate(0 62.14285714285711 -101.42857142857133)"><path d="M1.73 2.48 C22.72 -31.05, 104.63 -168.79, 125.47 -202.73 M-0.78 1.36 C19.98 -31.54, 102.69 -164.52, 123.87 -199.04" stroke="#2f9e44" stroke-width="2" fill="none"></path></g></g><mask></mask><g mask="url(#mask-BbGsWv2M3chnJaocB8sOF)" stroke-linecap="round"><g transform="translate(395.75 464.2499999999997) rotate(0 128.57142857142856 -156.42857142857144)"><path d="M0.71 -2.44 C24.98 -21.52, 102.35 -63.78, 144.83 -115.24 C187.31 -166.7, 236.67 -277.94, 255.57 -311.22" stroke="#1971c2" stroke-width="2.5" fill="none" stroke-dasharray="1.5 8"></path></g><g transform="translate(395.75 464.2499999999997) rotate(0 128.57142857142856 -156.42857142857144)"><path d="M250.72 -285 C253.72 -294.28, 255.39 -299.12, 254.1 -313.03" stroke="#1971c2" stroke-width="2.5" fill="none" stroke-dasharray="1.5 6"></path></g><g transform="translate(395.75 464.2499999999997) rotate(0 128.57142857142856 -156.42857142857144)"><path d="M235.5 -292.8 C242.61 -300, 248.41 -302.72, 254.1 -313.03" stroke="#1971c2" stroke-width="2.5" fill="none" stroke-dasharray="1.5 6"></path></g></g><mask id="mask-BbGsWv2M3chnJaocB8sOF"><rect x="0" y="0" fill="#fff" width="752.8928571428571" height="877.1071428571427"></rect><rect x="525.7911485944476" y="326.0357142857139" fill="#000" width="25.631988525390625" height="45" opacity="1"></rect></mask><g transform="translate(525.7911485944477 326.0357142857139) rotate(0 -1.9015238030680734 -18.614552463697464)"><text x="12.815994262695312" y="0" font-family="Virgil, Segoe UI Emoji" font-size="36px" fill="#1971c2" text-anchor="middle" style="white-space: pre;" direction="ltr" dominant-baseline="text-before-edge">2</text></g><g mask="url(#mask-M89osn5uf6jIQcBOanJ5P)" stroke-linecap="round"><g transform="translate(711.4642857142857 168.53571428571394) rotate(0 -21.428571428571388 139.28571428571428)"><path d="M0.21 0.2 C-6.87 24.54, -39.05 101.55, -40.61 147.89 C-42.17 194.22, -14.37 256.84, -9.17 278.21" stroke="#1971c2" stroke-width="2.5" fill="none" stroke-dasharray="1.5 8"></path></g><g transform="translate(711.4642857142857 168.53571428571394) rotate(0 -21.428571428571388 139.28571428571428)"><path d="M-24.43 260.12 C-20.28 264.3, -13.37 271.39, -10.92 279.18" stroke="#1971c2" stroke-width="2.5" fill="none" stroke-dasharray="1.5 6"></path></g><g transform="translate(711.4642857142857 168.53571428571394) rotate(0 -21.428571428571388 139.28571428571428)"><path d="M-8.17 254.83 C-9.97 260.97, -9.04 270, -10.92 279.18" stroke="#1971c2" stroke-width="2.5" fill="none" stroke-dasharray="1.5 6"></path></g></g><mask id="mask-M89osn5uf6jIQcBOanJ5P"><rect x="0" y="0" fill="#fff" width="854.3214285714284" height="547.1071428571424"></rect><rect x="656.3491472516741" y="296.0357142857139" fill="#000" width="24.5159912109375" height="45" opacity="1"></rect></mask><g transform="translate(656.3491472516743 296.0357142857139) rotate(0 34.8844284445716 11.704738128078816)"><text x="12.25799560546875" y="0" font-family="Virgil, Segoe UI Emoji" font-size="36px" fill="#1971c2" text-anchor="middle" style="white-space: pre;" direction="ltr" dominant-baseline="text-before-edge">3</text></g><g mask="url(#mask-mSL_VitK-aX8XADtd1mTX)" stroke-linecap="round"><g transform="translate(681.4642857142857 542.8214285714282) rotate(0 -49.28571428571428 104.99999999999994)"><path d="M2.26 -0.97 C-9.78 14.43, -57.66 57.33, -74.15 92.63 C-90.64 127.93, -93.05 191.63, -96.67 210.84" stroke="#1971c2" stroke-width="2.5" fill="none" stroke-dasharray="1.5 8"></path></g><g transform="translate(681.4642857142857 542.8214285714282) rotate(0 -49.28571428571428 104.99999999999994)"><path d="M-103 187.6 C-101.14 193.44, -99.07 199.66, -98.16 212.83" stroke="#1971c2" stroke-width="2.5" fill="none" stroke-dasharray="1.5 6"></path></g><g transform="translate(681.4642857142857 542.8214285714282) rotate(0 -49.28571428571428 104.99999999999994)"><path d="M-86.02 189.68 C-88.1 195.17, -89.96 200.91, -98.16 212.83" stroke="#1971c2" stroke-width="2.5" fill="none" stroke-dasharray="1.5 6"></path></g></g><mask id="mask-mSL_VitK-aX8XADtd1mTX"><rect x="0" y="0" fill="#fff" width="880.0357142857142" height="852.8214285714281"></rect><rect x="594.2300033569336" y="613.1785714285711" fill="#000" width="23.039993286132812" height="45" opacity="1"></rect></mask><g transform="translate(594.2300033569337 613.178571428571) rotate(0 40.031556495491884 34.57706500472773)"><text x="11.519996643066406" y="0" font-family="Virgil, Segoe UI Emoji" font-size="36px" fill="#1971c2" text-anchor="middle" style="white-space: pre;" direction="ltr" dominant-baseline="text-before-edge">4</text></g><g mask="url(#mask-asCXctDMyWPBtcpX-YeRB)" stroke-linecap="round"><g transform="translate(657.1785714285714 761.3928571428569) rotate(0 39.28571428571428 -87.14285714285717)"><path d="M-1.4 1.09 C8.42 -11.37, 43.81 -46.29, 57.14 -75.73 C70.47 -105.18, 74.72 -159.58, 78.58 -175.58" stroke="#1971c2" stroke-width="2.5" fill="none" stroke-dasharray="1.5 8"></path></g><g transform="translate(657.1785714285714 761.3928571428569) rotate(0 39.28571428571428 -87.14285714285717)"><path d="M83.96 -149.99 C81.15 -156.83, 80.17 -161.38, 80.41 -173.6" stroke="#1971c2" stroke-width="2.5" fill="none" stroke-dasharray="1.5 6"></path></g><g transform="translate(657.1785714285714 761.3928571428569) rotate(0 39.28571428571428 -87.14285714285717)"><path d="M67.09 -152.78 C68.25 -158.87, 71.25 -162.77, 80.41 -173.6" stroke="#1971c2" stroke-width="2.5" fill="none" stroke-dasharray="1.5 6"></path></g></g><mask id="mask-asCXctDMyWPBtcpX-YeRB"><rect x="0" y="0" fill="#fff" width="835.75" height="1035.678571428571"></rect><rect x="701.7688642229352" y="664.6071428571425" fill="#000" width="22.24798583984375" height="45" opacity="1"></rect></mask><g transform="translate(701.7688642229353 664.6071428571425) rotate(0 -6.001172801320024 9.539755645713512)"><text x="11.123992919921875" y="0" font-family="Virgil, Segoe UI Emoji" font-size="36px" fill="#1971c2" text-anchor="middle" style="white-space: pre;" direction="ltr" dominant-baseline="text-before-edge">5</text></g><g mask="url(#mask-rbE2XtbkTjmySdAOSD5BK)" stroke-linecap="round"><g transform="translate(776.2464096668367 594.2499999999995) rotate(0 21.428571428571445 77.14285714285717)"><path d="M-1.78 0.47 C-1.63 13.44, -8.47 54.85, -1.05 80.34 C6.37 105.84, 35.28 140.83, 42.71 153.44" stroke="#1971c2" stroke-width="2.5" fill="none" stroke-dasharray="1.5 8"></path></g><g transform="translate(776.2464096668367 594.2499999999995) rotate(0 21.428571428571445 77.14285714285717)"><path d="M22.72 138.15 C25.42 142.29, 31.32 146.26, 43.94 154.58" stroke="#1971c2" stroke-width="2.5" fill="none" stroke-dasharray="1.5 6"></path></g><g transform="translate(776.2464096668367 594.2499999999995) rotate(0 21.428571428571445 77.14285714285717)"><path d="M36.82 128.48 C36.35 134.77, 38.99 140.98, 43.94 154.58" stroke="#1971c2" stroke-width="2.5" fill="none" stroke-dasharray="1.5 6"></path></g></g><mask id="mask-rbE2XtbkTjmySdAOSD5BK"><rect x="0" y="0" fill="#fff" width="919.1035525239796" height="848.5357142857139"></rect><rect x="764.7264130237702" y="654.6071428571424" fill="#000" width="23.039993286132812" height="45" opacity="1"></rect></mask><g transform="translate(764.7264130237702 654.6071428571425) rotate(0 30.622027287302387 16.599047885728623)"><text x="11.519996643066406" y="0" font-family="Virgil, Segoe UI Emoji" font-size="36px" fill="#1971c2" text-anchor="middle" style="white-space: pre;" direction="ltr" dominant-baseline="text-before-edge">6</text></g><g mask="url(#mask-ORlp2ekseEXHGe6trxdzg)" stroke-linecap="round"><g transform="translate(901.4642857142857 745.6785714285711) rotate(0 -37.14285714285711 -92.85714285714283)"><path d="M-1.61 1.16 C-3.99 -15.89, -0.22 -68.77, -12.52 -99.91 C-24.82 -131.05, -65.48 -171.59, -75.41 -185.66" stroke="#1971c2" stroke-width="2.5" fill="none" stroke-dasharray="1.5 8"></path></g><g transform="translate(901.4642857142857 745.6785714285711) rotate(0 -37.14285714285711 -92.85714285714283)"><path d="M-52.99 -172.81 C-62.72 -178.54, -69.54 -180.73, -74.43 -186.47" stroke="#1971c2" stroke-width="2.5" fill="none" stroke-dasharray="1.5 6"></path></g><g transform="translate(901.4642857142857 745.6785714285711) rotate(0 -37.14285714285711 -92.85714285714283)"><path d="M-66.16 -161.89 C-71.2 -171.51, -73.26 -177.65, -74.43 -186.47" stroke="#1971c2" stroke-width="2.5" fill="none" stroke-dasharray="1.5 6"></path></g></g><mask id="mask-ORlp2ekseEXHGe6trxdzg"><rect x="0" y="0" fill="#fff" width="1075.75" height="1031.3928571428569"></rect><rect x="878.9231447492327" y="624.6071428571425" fill="#000" width="19.367996215820312" height="45" opacity="1"></rect></mask><g transform="translate(878.9231447492325 624.6071428571425) rotate(0 -15.966291046036076 28.82082128684425)"><text x="9.683998107910156" y="0" font-family="Virgil, Segoe UI Emoji" font-size="36px" fill="#1971c2" text-anchor="middle" style="white-space: pre;" direction="ltr" dominant-baseline="text-before-edge">7</text></g><g stroke-linecap="round"><g transform="translate(808.6071428571429 445.67857142857116) rotate(0 -15.000000000000057 -144.28571428571428)"><path d="M1.9 2.52 C3.44 -20.31, 15.48 -91.14, 9.03 -139.33 C2.58 -187.51, -28.66 -261.42, -36.82 -286.59" stroke="#1971c2" stroke-width="2.5" fill="none" stroke-dasharray="1.5 8"></path></g><g transform="translate(808.6071428571429 445.67857142857116) rotate(0 -15.000000000000057 -144.28571428571428)"><path d="M-18.96 -267.1 C-24.8 -271.65, -28.54 -279.48, -38.08 -287.6" stroke="#1971c2" stroke-width="2.5" fill="none" stroke-dasharray="1.5 6"></path></g><g transform="translate(808.6071428571429 445.67857142857116) rotate(0 -15.000000000000057 -144.28571428571428)"><path d="M-35.04 -261.26 C-36.14 -267.62, -35.19 -277.15, -38.08 -287.6" stroke="#1971c2" stroke-width="2.5" fill="none" stroke-dasharray="1.5 6"></path></g></g><mask></mask><g mask="url(#mask--SzUYcBInxlliSXnAbkIR)" stroke-linecap="round"><g transform="translate(804.3214285714286 159.96428571428538) rotate(0 160 177.1428571428571)"><path d="M-2.15 -2.52 C19.57 32.93, 74.21 150.81, 127.85 210.07 C181.49 269.34, 287.73 329.36, 319.7 353.08" stroke="#1971c2" stroke-width="2.5" fill="none" stroke-dasharray="1.5 8"></path></g><g transform="translate(804.3214285714286 159.96428571428538) rotate(0 160 177.1428571428571)"><path d="M293.6 346.7 C299.54 348.43, 304.81 349.69, 318.38 352.82" stroke="#1971c2" stroke-width="2.5" fill="none" stroke-dasharray="1.5 6"></path></g><g transform="translate(804.3214285714286 159.96428571428538) rotate(0 160 177.1428571428571)"><path d="M303.06 332.45 C306.86 337.14, 310.12 341.42, 318.38 352.82" stroke="#1971c2" stroke-width="2.5" fill="none" stroke-dasharray="1.5 6"></path></g></g><mask id="mask--SzUYcBInxlliSXnAbkIR"><rect x="0" y="0" fill="#fff" width="1224.3214285714284" height="614.2499999999995"></rect><rect x="921.9308591570173" y="348.8928571428569" fill="#000" width="21.923995971679688" height="45" opacity="1"></rect></mask><g transform="translate(921.9308591570174 348.89285714285677) rotate(0 41.16857975221109 -13.648698352170868)"><text x="10.961997985839844" y="0" font-family="Virgil, Segoe UI Emoji" font-size="36px" fill="#1971c2" text-anchor="middle" style="white-space: pre;" direction="ltr" dominant-baseline="text-before-edge">9</text></g><g mask="url(#mask-VQE5TYDCK1FEmDEnfbpjf)" stroke-linecap="round"><g transform="translate(1115.75 588.535714285714) rotate(0 -17.14285714285711 87.14285714285711)"><path d="M-0.3 -0.27 C-6.28 13.46, -30.93 52.57, -33.46 81.25 C-35.99 109.94, -18.96 156.69, -15.49 171.86" stroke="#1971c2" stroke-width="2.5" fill="none" stroke-dasharray="1.5 8"></path></g><g transform="translate(1115.75 588.535714285714) rotate(0 -17.14285714285711 87.14285714285711)"><path d="M-30.3 152.17 C-24.66 158.58, -20.62 168.46, -16.92 171.21" stroke="#1971c2" stroke-width="2.5" fill="none" stroke-dasharray="1.5 6"></path></g><g transform="translate(1115.75 588.535714285714) rotate(0 -17.14285714285711 87.14285714285711)"><path d="M-13.84 147.52 C-14.59 155.71, -16.9 167.39, -16.92 171.21" stroke="#1971c2" stroke-width="2.5" fill="none" stroke-dasharray="1.5 6"></path></g></g><mask id="mask-VQE5TYDCK1FEmDEnfbpjf"><rect x="0" y="0" fill="#fff" width="1250.0357142857142" height="862.8214285714282"></rect><rect x="1064.2022923060824" y="647.4642857142854" fill="#000" width="34.52398681640625" height="45" opacity="1"></rect></mask><g transform="translate(1064.2022923060829 647.4642857142852) rotate(0 34.54218077828432 26.867009806739475)"><text x="17.261993408203125" y="0" font-family="Virgil, Segoe UI Emoji" font-size="36px" fill="#1971c2" text-anchor="middle" style="white-space: pre;" direction="ltr" dominant-baseline="text-before-edge">10</text></g><g mask="url(#mask-nUwzrRF3ogFsKNLDHWgX5)" stroke-linecap="round"><g transform="translate(1180.0357142857142 778.535714285714) rotate(0 17.14285714285711 -82.14285714285717)"><path d="M-1.77 1.02 C4.02 -14.44, 26.96 -62.93, 32.3 -90.89 C37.64 -118.86, 31.32 -154.99, 30.25 -166.77" stroke="#1971c2" stroke-width="2.5" fill="none" stroke-dasharray="1.5 8"></path></g><g transform="translate(1180.0357142857142 778.535714285714) rotate(0 17.14285714285711 -82.14285714285717)"><path d="M42.23 -145.86 C37.29 -148.07, 34.78 -155.96, 32.16 -168.17" stroke="#1971c2" stroke-width="2.5" fill="none" stroke-dasharray="1.5 6"></path></g><g transform="translate(1180.0357142857142 778.535714285714) rotate(0 17.14285714285711 -82.14285714285717)"><path d="M25.24 -143.86 C23.91 -146.39, 25.01 -154.7, 32.16 -168.17" stroke="#1971c2" stroke-width="2.5" fill="none" stroke-dasharray="1.5 6"></path></g></g><mask id="mask-nUwzrRF3ogFsKNLDHWgX5"><rect x="0" y="0" fill="#fff" width="1314.3214285714284" height="1042.8214285714284"></rect><rect x="1204.5654318673267" y="667.4642857142854" fill="#000" width="19.511993408203125" height="45" opacity="1"></rect></mask><g transform="translate(1204.565431867327 667.4642857142852) rotate(0 -8.205146038269504 28.19712711221416)"><text x="9.755996704101562" y="0" font-family="Virgil, Segoe UI Emoji" font-size="36px" fill="#1971c2" text-anchor="middle" style="white-space: pre;" direction="ltr" dominant-baseline="text-before-edge">11</text></g><g mask="url(#mask-pg99nR1WtPP2x78_gffOq)" stroke-linecap="round"><g transform="translate(1261.4642857142856 621.3928571428569) rotate(0 52.142857142857224 80)"><path d="M1.78 -1.83 C7.66 12.03, 18.26 57.58, 35.23 84.61 C52.2 111.63, 92.09 147.8, 103.57 160.33" stroke="#1971c2" stroke-width="1.5" fill="none" stroke-dasharray="8 9"></path></g><g transform="translate(1261.4642857142856 621.3928571428569) rotate(0 52.142857142857224 80)"><path d="M79.66 149.32 C89.02 152.19, 94.75 155.79, 103.44 159.22" stroke="#1971c2" stroke-width="1.5" fill="none"></path></g><g transform="translate(1261.4642857142856 621.3928571428569) rotate(0 52.142857142857224 80)"><path d="M91.81 137.28 C97.6 143.83, 99.71 151.01, 103.44 159.22" stroke="#1971c2" stroke-width="1.5" fill="none"></path></g></g><mask id="mask-pg99nR1WtPP2x78_gffOq"><rect x="0" y="0" fill="#fff" width="1465.75" height="881.3928571428569"></rect><rect x="1279.4845788138255" y="681.7499999999999" fill="#000" width="35.38798522949219" height="45" opacity="1"></rect></mask><g transform="translate(1279.484578813825 681.7499999999997) rotate(0 34.656608303849225 18.893357266805026)"><text x="17.693992614746094" y="0" font-family="Virgil, Segoe UI Emoji" font-size="36px" fill="#1971c2" text-anchor="middle" style="white-space: pre;" direction="ltr" dominant-baseline="text-before-edge">12</text></g><g transform="translate(746.4923325437635 480.9410490102243) rotate(0 14.097070338197966 14.499843776432272)" stroke="none"><path fill="#f08c00" d="M -2.66,0 Q -2.66,0 -2.69,-0.92 -2.72,-1.85 -2.79,-2.97 -2.86,-4.09 -2.92,-5.29 -2.98,-6.48 -2.61,-8.53 -2.24,-10.59 -1.43,-11.98 -0.62,-13.37 0.26,-14.39 1.16,-15.41 2.82,-16.36 4.47,-17.32 5.75,-17.96 7.03,-18.61 8.44,-18.69 9.84,-18.77 11.06,-18.79 12.29,-18.82 13.96,-18.37 15.63,-17.92 17.10,-17.03 18.57,-16.14 20.16,-15.30 21.75,-14.46 22.63,-13.68 23.50,-12.89 24.68,-12.07 25.86,-11.24 26.74,-10.04 27.62,-8.83 28.54,-7.54 29.46,-6.24 30.49,-4.75 31.53,-3.26 31.69,-2.02 31.84,-0.79 31.86,0.50 31.89,1.80 31.89,3.02 31.89,4.23 31.78,5.96 31.67,7.69 31.10,8.88 30.53,10.06 29.75,10.87 28.97,11.67 27.91,12.77 26.85,13.87 25.93,15.09 25.01,16.32 24.16,17.19 23.31,18.05 22.50,18.86 21.68,19.68 20.42,20.96 19.15,22.23 18.55,23.50 17.95,24.76 17.13,25.72 16.32,26.68 16.50,28.34 16.68,30.01 16.62,31.24 16.56,32.48 16.55,33.59 16.54,34.71 16.54,35.98 16.55,37.25 16.55,38.46 16.56,39.68 16.56,41.86 16.57,44.05 16.47,44.64 16.38,45.22 16.10,45.75 15.82,46.28 15.38,46.69 14.95,47.10 14.41,47.35 13.87,47.60 13.28,47.66 12.68,47.73 12.10,47.60 11.52,47.47 11.01,47.16 10.50,46.86 10.11,46.40 9.73,45.95 9.51,45.39 9.29,44.84 9.25,44.24 9.22,43.65 9.38,43.07 9.54,42.50 9.87,42.01 10.21,41.51 10.68,41.15 11.16,40.79 11.72,40.60 12.29,40.41 12.88,40.41 13.48,40.41 14.05,40.60 14.61,40.79 15.08,41.15 15.56,41.51 15.89,42.01 16.23,42.50 16.39,43.07 16.55,43.65 16.51,44.24 16.48,44.84 16.26,45.39 16.04,45.95 15.65,46.40 15.27,46.86 14.76,47.16 14.25,47.47 13.66,47.60 13.08,47.73 12.49,47.66 11.90,47.60 11.36,47.35 10.82,47.10 10.38,46.69 9.95,46.28 9.67,45.75 9.39,45.22 9.30,44.63 9.20,44.05 9.20,44.05 9.20,44.05 9.21,41.46 9.21,38.87 9.22,37.65 9.23,36.43 9.23,35.05 9.24,33.67 9.27,32.04 9.31,30.40 9.67,28.87 10.04,27.33 10.08,26.03 10.11,24.73 10.84,23.37 11.57,22.01 11.84,20.96 12.11,19.90 13.15,18.48 14.19,17.05 14.94,16.25 15.70,15.45 16.53,14.61 17.35,13.76 18.14,12.96 18.93,12.16 19.94,11.05 20.95,9.95 21.74,9.13 22.53,8.31 23.50,7.08 24.48,5.84 24.48,4.64 24.48,3.43 24.49,2.24 24.49,1.05 24.64,-0.21 24.80,-1.47 24.08,-2.63 23.37,-3.80 22.41,-4.76 21.44,-5.72 20.16,-6.59 18.88,-7.46 17.37,-8.62 15.86,-9.77 14.82,-10.50 13.79,-11.22 12.64,-11.51 11.49,-11.80 10.32,-11.81 9.16,-11.83 7.98,-11.87 6.81,-11.91 5.60,-10.75 4.40,-9.59 3.69,-8.04 2.98,-6.48 2.92,-5.29 2.86,-4.09 2.79,-2.97 2.72,-1.85 2.69,-0.92 2.66,0 2.62,0.31 2.58,0.63 2.47,0.93 2.35,1.23 2.17,1.50 1.99,1.76 1.75,1.97 1.51,2.19 1.22,2.33 0.94,2.48 0.63,2.56 0.32,2.64 -0.00,2.64 -0.32,2.64 -0.63,2.56 -0.94,2.48 -1.22,2.33 -1.51,2.19 -1.75,1.97 -1.99,1.76 -2.17,1.50 -2.35,1.23 -2.47,0.93 -2.58,0.63 -2.62,0.31 -2.66,-0.00 -2.66,-0.00 L -2.66,0 Z"></path></g><g transform="translate(757.7699888143219 543.773705374764) rotate(0 1.2083203147027461 0.40277343823419187)" stroke="none"><path fill="#f08c00" d="M 1.42,-2.14 Q 1.42,-2.14 2.26,-1.56 3.09,-0.98 2.87,1.29 2.65,3.57 1.25,4.00 -0.14,4.44 -1.88,4.28 -3.62,4.11 -4.60,2.70 -5.58,1.28 -5.16,-0.07 -4.73,-1.43 -3.56,-2.12 -2.38,-2.82 -0.36,-3.32 1.65,-3.82 2.83,-3.93 4.00,-4.04 4.43,-4.07 4.86,-4.09 5.26,-4.06 5.65,-4.03 6.03,-3.90 6.41,-3.78 6.75,-3.56 7.08,-3.35 7.36,-3.07 7.64,-2.78 7.84,-2.43 8.04,-2.09 8.15,-1.71 8.26,-1.33 8.28,-0.93 8.29,-0.53 8.22,-0.14 8.14,0.24 7.97,0.60 7.80,0.96 7.55,1.27 7.29,1.58 6.98,1.82 6.66,2.06 6.29,2.22 5.93,2.37 5.53,2.44 5.14,2.50 4.04,2.07 2.95,1.64 2.56,2.02 2.17,2.40 1.68,2.63 1.20,2.87 0.66,2.94 0.12,3.00 -0.40,2.90 -0.93,2.79 -1.40,2.51 -1.87,2.24 -2.23,1.83 -2.59,1.43 -2.80,0.93 -3.01,0.43 -3.04,-0.11 -3.08,-0.65 -2.95,-1.17 -2.81,-1.70 -2.51,-2.15 -2.21,-2.60 -1.79,-2.94 -1.36,-3.27 -0.85,-3.46 -0.34,-3.64 0.19,-3.65 0.74,-3.65 1.25,-3.49 1.77,-3.32 2.21,-3.00 2.64,-2.68 2.96,-2.24 3.27,-1.79 3.42,-1.27 3.57,-0.75 3.55,-0.21 3.53,0.32 3.34,0.83 3.15,1.34 2.80,1.75 2.46,2.17 2.00,2.46 1.54,2.75 1.01,2.87 0.48,3.00 -0.05,2.95 -0.59,2.90 -1.09,2.68 -1.58,2.46 -1.98,2.09 -2.38,1.72 -2.64,1.25 -2.90,0.77 -3.00,0.24 -3.10,-0.28 -3.02,-0.82 -2.94,-1.36 -2.69,-1.84 -2.44,-2.32 -2.44,-2.32 -2.44,-2.32 1.20,-3.21 4.86,-4.09 5.26,-4.06 5.65,-4.03 6.03,-3.90 6.41,-3.78 6.75,-3.56 7.08,-3.35 7.36,-3.07 7.64,-2.78 7.84,-2.43 8.04,-2.09 8.15,-1.71 8.26,-1.33 8.28,-0.93 8.29,-0.53 8.22,-0.14 8.14,0.24 7.97,0.60 7.80,0.96 7.55,1.27 7.29,1.58 6.98,1.82 6.66,2.06 6.29,2.22 5.93,2.37 5.53,2.44 5.14,2.50 4.71,2.50 4.28,2.49 3.03,2.52 1.78,2.55 0.49,2.89 -0.79,3.23 -0.57,2.12 -0.35,1.00 -1.10,-0.17 -1.85,-1.35 -0.73,-1.14 0.37,-0.93 0.03,0.95 -0.31,2.83 -0.87,2.49 -1.42,2.14 -1.66,1.94 -1.90,1.74 -2.08,1.48 -2.26,1.23 -2.37,0.94 -2.49,0.65 -2.53,0.34 -2.57,0.04 -2.54,-0.26 -2.51,-0.57 -2.40,-0.86 -2.30,-1.16 -2.12,-1.41 -1.95,-1.67 -1.72,-1.88 -1.49,-2.09 -1.22,-2.24 -0.95,-2.39 -0.65,-2.47 -0.35,-2.55 -0.04,-2.55 0.26,-2.56 0.57,-2.49 0.87,-2.42 1.15,-2.28 1.42,-2.14 1.42,-2.14 L 1.42,-2.14 Z"></path></g><g transform="translate(387.9271858914866 145.6767168573199) rotate(0 4.877998352050781 22.5)"><text x="0" y="0" font-family="Virgil, Segoe UI Emoji" font-size="36px" fill="#1971c2" text-anchor="start" style="white-space: pre;" direction="ltr" dominant-baseline="text-before-edge">1</text></g><g transform="translate(794.4077218583267 303.48680729150476) rotate(0 13.769996643066406 22.5)"><text x="0" y="0" font-family="Virgil, Segoe UI Emoji" font-size="36px" fill="#1971c2" text-anchor="start" style="white-space: pre;" direction="ltr" dominant-baseline="text-before-edge">8</text></g></svg>